<svg width="48" height="56" viewBox="0 0 48 56" fill="none" xmlns="http://www.w3.org/2000/svg">
<g clip-path="url(#clip0_325_2)">
<path d="M22.9658 55.348C22.3546 54.9887 21.2295 54.3288 20.4655 53.8815C18.735 52.8683 16.1587 51.3561 13.8597 50.0042C12.892 49.4351 11.1418 48.4074 9.97036 47.7205C8.79892 47.0335 6.07636 45.4363 3.92023 44.1713L0 41.8711V27.7347V13.5983L0.895172 13.0753C2.19829 12.314 5.24469 10.5718 10.4642 7.60272C12.9939 6.16379 15.258 4.86948 15.4957 4.72649C15.7334 4.58349 17.2058 3.73902 18.7677 2.84989C20.3297 1.96076 22.0787 0.955798 22.6545 0.616644L23.7014 0L24.3831 0.343921C24.758 0.533078 25.8149 1.053 26.7317 1.49931C27.6485 1.94561 29.1348 2.67007 30.0346 3.10921C30.9344 3.54835 31.8372 3.98517 32.041 4.07993C32.989 4.52087 36.3316 6.16738 36.3316 6.19341C36.3316 6.24176 33.9191 7.60703 29.4564 10.0842L28.9709 10.3537L26.3543 9.06236C24.9151 8.35211 23.7193 7.771 23.6969 7.771C23.6746 7.771 23.2647 7.99698 22.7863 8.27319C22.3078 8.5494 21.569 8.97531 21.1446 9.21967C20.7201 9.46402 19.8008 9.99769 19.1017 10.4056C18.4025 10.8135 16.4995 11.9068 14.8728 12.8352C8.18538 16.6516 6.80858 17.4511 6.70064 17.5808C6.65638 17.6339 6.64113 20.8366 6.65187 27.8264L6.66749 37.9947L10.8964 40.4445C13.2223 41.7919 15.4309 43.0726 15.8044 43.2905C18.1959 44.6855 20.9869 46.2971 21.0592 46.3248C21.1316 46.3525 21.1446 45.0824 21.1446 37.9631V29.5687L20.0488 28.9193C19.4461 28.5621 17.8061 27.6162 16.4043 26.8173C13.4513 25.1344 13.3339 25.0633 13.405 25.0011C13.4344 24.9754 14.6253 24.2811 16.0514 23.458C17.4775 22.635 18.7164 21.9198 18.8045 21.8686C18.9615 21.7774 19.0433 21.8206 22.9254 24.0463L26.886 26.317L26.8905 29.0866C26.8948 31.7558 27.0662 53.1859 27.0903 54.0651L27.1021 54.4957L25.6204 55.2473C24.8055 55.6606 24.1249 55.9994 24.1079 56C24.0909 56.0006 23.577 55.7072 22.9658 55.348ZM31.8159 45.6864C31.811 42.377 31.7901 36.0176 31.7696 31.5543L31.7323 23.4393L27.7693 21.1574C23.9231 18.9426 23.8101 18.8723 23.9311 18.7694C23.9997 18.7111 25.1024 18.0678 26.3815 17.34C27.6607 16.6122 28.8084 15.9571 28.9321 15.8843L29.157 15.752L29.5186 15.9548C29.7175 16.0663 30.1302 16.3029 30.4358 16.4806C31.0582 16.8425 33.9269 18.497 35.4365 19.3647C35.9797 19.677 36.5909 20.0242 36.7946 20.1363C36.9984 20.2485 37.2137 20.3818 37.2731 20.4325C37.3754 20.5199 37.3811 21.2662 37.3811 34.4961V48.4674L34.8654 49.9278C33.4817 50.731 32.2316 51.4591 32.0873 51.5458L31.8249 51.7035L31.8159 45.6864ZM42.2992 38.6699C42.2769 35.4299 42.2402 29.3523 42.2177 25.1642C42.189 19.8253 42.1567 17.5221 42.1095 17.4583C42.0725 17.4082 40.3208 16.374 38.2169 15.1599C36.113 13.9458 34.3827 12.9259 34.3718 12.8933C34.3609 12.8608 35.0821 12.4173 35.9746 11.9078C36.867 11.3983 38.1097 10.6881 38.7361 10.3295C39.5314 9.87426 39.9111 9.68898 39.9946 9.7154C40.0604 9.73621 40.6731 10.0784 41.356 10.4758C42.3332 11.0444 46.1749 13.2548 47.7375 14.1475L48 14.2975L47.9844 27.8065L47.9689 41.3154L46.1785 42.3418C44.3232 43.4055 42.9446 44.2009 42.5614 44.4289L42.3398 44.5607L42.2992 38.6699Z" fill="#0066CC"/>
</g>
<defs>
<clipPath id="clip0_325_2">
<rect width="48" height="56" fill="white"/>
</clipPath>
</defs>
</svg>
