<svg width="16" height="17" viewBox="0 0 16 17" fill="none" xmlns="http://www.w3.org/2000/svg">
<path d="M9.87701 8.50001L4.85517 13.5218C4.72273 13.6543 4.65817 13.8102 4.66151 13.9897C4.66495 14.1692 4.7329 14.3252 4.86534 14.4577C4.9979 14.5901 5.1539 14.6563 5.33334 14.6563C5.51279 14.6563 5.66879 14.5901 5.80134 14.4577L10.9153 9.35384C11.0359 9.23329 11.1252 9.09823 11.1833 8.94868C11.2415 8.79912 11.2705 8.64956 11.2705 8.50001C11.2705 8.35045 11.2415 8.2009 11.1833 8.05134C11.1252 7.90179 11.0359 7.76673 10.9153 7.64618L5.80134 2.53201C5.66879 2.39957 5.51106 2.33507 5.32817 2.33851C5.14529 2.34195 4.98762 2.4099 4.85517 2.54234C4.72273 2.67479 4.65651 2.83079 4.65651 3.01034C4.65651 3.18979 4.72273 3.34573 4.85517 3.47818L9.87701 8.50001Z" fill="#0349C7"/>
</svg>
