<svg width="24" height="24" viewBox="0 0 24 24" fill="none" xmlns="http://www.w3.org/2000/svg">
<path d="M8.977 19H15.0328L14.4078 16.5H9.602L8.977 19ZM9 15H15C16.3833 15 17.5625 14.5125 18.5375 13.5375C19.5125 12.5625 20 11.3833 20 10C20 8.61667 19.5125 7.4375 18.5375 6.4625C17.5625 5.4875 16.3833 5 15 5H9C7.61667 5 6.4375 5.4875 5.4625 6.4625C4.4875 7.4375 4 8.61667 4 10C4 11.3833 4.4875 12.5625 5.4625 13.5375C6.4375 14.5125 7.61667 15 9 15ZM11.9982 12.25C11.3789 12.25 10.8493 12.0295 10.4095 11.5885C9.96983 11.1475 9.75 10.6174 9.75 9.99825C9.75 9.37892 9.9705 8.84933 10.4115 8.4095C10.8525 7.96983 11.3826 7.75 12.0018 7.75C12.6211 7.75 13.1507 7.9705 13.5905 8.4115C14.0302 8.8525 14.25 9.38258 14.25 10.0018C14.25 10.6211 14.0295 11.1507 13.5885 11.5905C13.1475 12.0302 12.6174 12.25 11.9982 12.25ZM6.49975 8.86525C6.74475 8.86525 6.95025 8.78242 7.11625 8.61675C7.28225 8.45092 7.36525 8.24542 7.36525 8.00025C7.36525 7.75525 7.28242 7.54975 7.11675 7.38375C6.95092 7.21775 6.74542 7.13475 6.50025 7.13475C6.25525 7.13475 6.04975 7.21758 5.88375 7.38325C5.71775 7.54908 5.63475 7.75458 5.63475 7.99975C5.63475 8.24475 5.71758 8.45025 5.88325 8.61625C6.04908 8.78225 6.25458 8.86525 6.49975 8.86525ZM5 20.5C4.7875 20.5 4.60942 20.4281 4.46575 20.2843C4.32192 20.1404 4.25 19.9623 4.25 19.7497C4.25 19.5371 4.32192 19.359 4.46575 19.2155C4.60942 19.0718 4.7875 19 5 19H7.4365L8.077 16.4288C6.491 16.2159 5.165 15.5038 4.099 14.2923C3.033 13.0808 2.5 11.65 2.5 10C2.5 8.18933 3.13067 6.65333 4.392 5.392C5.65333 4.13067 7.18933 3.5 9 3.5H15C16.8107 3.5 18.3467 4.13067 19.608 5.392C20.8693 6.65333 21.5 8.18933 21.5 10C21.5 11.65 20.967 13.0808 19.901 14.2923C18.835 15.5038 17.509 16.2159 15.923 16.4288L16.5635 19H19C19.2125 19 19.3906 19.0719 19.5343 19.2158C19.6781 19.3596 19.75 19.5378 19.75 19.7503C19.75 19.9629 19.6781 20.141 19.5343 20.2845C19.3906 20.4282 19.2125 20.5 19 20.5H5ZM12 13.75C13.0358 13.75 13.9198 13.384 14.652 12.652C15.384 11.9198 15.75 11.0358 15.75 10C15.75 8.96417 15.384 8.08017 14.652 7.348C13.9198 6.616 13.0358 6.25 12 6.25C10.9642 6.25 10.0802 6.616 9.348 7.348C8.616 8.08017 8.25 8.96417 8.25 10C8.25 11.0358 8.616 11.9198 9.348 12.652C10.0802 13.384 10.9642 13.75 12 13.75Z" fill="url(#paint0_linear_217_87)"/>
<defs>
<linearGradient id="paint0_linear_217_87" x1="12" y1="3.5" x2="12" y2="20.5" gradientUnits="userSpaceOnUse">
<stop stop-color="#1E56BA"/>
<stop offset="1" stop-color="#023694"/>
</linearGradient>
</defs>
</svg>
