<svg width="16" height="16" viewBox="0 0 16 16" fill="none" xmlns="http://www.w3.org/2000/svg">
<path d="M14.3332 4.20517V11.7948C14.3332 12.1316 14.2165 12.4167 13.9832 12.65C13.7498 12.8833 13.4648 13 13.128 13H2.87167C2.53489 13 2.24984 12.8833 2.0165 12.65C1.78317 12.4167 1.6665 12.1316 1.6665 11.7948V4.20517C1.6665 3.86839 1.78317 3.58333 2.0165 3.35C2.24984 3.11667 2.53489 3 2.87167 3H13.128C13.4648 3 13.7498 3.11667 13.9832 3.35C14.2165 3.58333 14.3332 3.86839 14.3332 4.20517ZM2.6665 5.60267H13.3332V4.20517C13.3332 4.15383 13.3118 4.10683 13.269 4.06417C13.2263 4.02139 13.1793 4 13.128 4H2.87167C2.82034 4 2.77334 4.02139 2.73067 4.06417C2.68789 4.10683 2.6665 4.15383 2.6665 4.20517V5.60267ZM2.6665 7.73067V11.7948C2.6665 11.8462 2.68789 11.8932 2.73067 11.9358C2.77334 11.9786 2.82034 12 2.87167 12H13.128C13.1793 12 13.2263 11.9786 13.269 11.9358C13.3118 11.8932 13.3332 11.8462 13.3332 11.7948V7.73067H2.6665Z" fill="#494F59"/>
</svg>
