<svg width="32" height="32" viewBox="0 0 32 32" fill="none" xmlns="http://www.w3.org/2000/svg">
<path d="M16.0001 19.5693C15.8394 19.5693 15.6899 19.5437 15.5514 19.4923C15.413 19.441 15.2813 19.353 15.1564 19.2284L9.16408 13.236C8.97964 13.0514 8.8852 12.8192 8.88075 12.5397C8.87653 12.2603 8.97097 12.024 9.16408 11.8307C9.35742 11.6376 9.59164 11.541 9.86675 11.541C10.1419 11.541 10.3761 11.6376 10.5694 11.8307L16.0001 17.2617L21.4307 11.8307C21.6154 11.6462 21.8475 11.5518 22.1271 11.5473C22.4064 11.5431 22.6427 11.6376 22.8361 11.8307C23.0292 12.024 23.1257 12.2582 23.1257 12.5333C23.1257 12.8085 23.0292 13.0427 22.8361 13.236L16.8437 19.2284C16.7189 19.353 16.5872 19.441 16.4487 19.4923C16.3103 19.5437 16.1607 19.5693 16.0001 19.5693Z" fill="#5F6571"/>
</svg>
