<svg width="25" height="24" viewBox="0 0 25 24" fill="none" xmlns="http://www.w3.org/2000/svg">
<path d="M4.6155 19.6923V10.6153H4.51925C4.09742 10.6153 3.73875 10.4675 3.44325 10.172C3.14775 9.87654 3 9.51795 3 9.09629V6.92304C3 6.50137 3.14775 6.14279 3.44325 5.84729C3.73875 5.55179 4.09742 5.40404 4.51925 5.40404H8.17125C8.03025 5.2412 7.93442 5.05779 7.88375 4.85379C7.83308 4.64995 7.80775 4.43587 7.80775 4.21154C7.80775 3.4637 8.0695 2.82804 8.593 2.30454C9.1165 1.78104 9.75217 1.51929 10.5 1.51929C10.8833 1.51929 11.2385 1.5997 11.5655 1.76054C11.8923 1.92154 12.1846 2.13662 12.4423 2.40579C12.6999 2.12629 12.9923 1.9087 13.3193 1.75304C13.6461 1.5972 14.0012 1.51929 14.3845 1.51929C15.1325 1.51929 15.7682 1.78104 16.2917 2.30454C16.8152 2.82804 17.077 3.4637 17.077 4.21154C17.077 4.43337 17.0491 4.64429 16.9932 4.84429C16.9374 5.04429 16.8442 5.23087 16.7135 5.40404H20.4807C20.9026 5.40404 21.2613 5.55179 21.5568 5.84729C21.8523 6.14279 22 6.50137 22 6.92304V9.09629C22 9.51795 21.8523 9.87654 21.5568 10.172C21.2613 10.4675 20.9026 10.6153 20.4807 10.6153H20.3845V19.6923C20.3845 20.1895 20.2075 20.615 19.8535 20.969C19.4995 21.323 19.074 21.5 18.577 21.5H6.423C5.926 21.5 5.5005 21.323 5.1465 20.969C4.7925 20.615 4.6155 20.1895 4.6155 19.6923ZM14.3845 3.01929C14.0467 3.01929 13.7635 3.13354 13.535 3.36204C13.3065 3.59054 13.1923 3.8737 13.1923 4.21154C13.1923 4.54937 13.3065 4.83254 13.535 5.06104C13.7635 5.2897 14.0467 5.40404 14.3845 5.40404C14.7223 5.40404 15.0056 5.2897 15.2343 5.06104C15.4628 4.83254 15.577 4.54937 15.577 4.21154C15.577 3.8737 15.4628 3.59054 15.2343 3.36204C15.0056 3.13354 14.7223 3.01929 14.3845 3.01929ZM9.30775 4.21154C9.30775 4.54937 9.422 4.83254 9.6505 5.06104C9.879 5.2897 10.1622 5.40404 10.5 5.40404C10.8378 5.40404 11.121 5.2897 11.3495 5.06104C11.578 4.83254 11.6923 4.54937 11.6923 4.21154C11.6923 3.8737 11.578 3.59054 11.3495 3.36204C11.121 3.13354 10.8378 3.01929 10.5 3.01929C10.1622 3.01929 9.879 3.13354 9.6505 3.36204C9.422 3.59054 9.30775 3.8737 9.30775 4.21154ZM4.5 6.90379V9.11554H11.75V6.90379H4.5ZM11.75 20V10.6153H6.11525V19.6923C6.11525 19.7821 6.14417 19.8559 6.202 19.9135C6.25967 19.9712 6.33333 20 6.423 20H11.75ZM13.25 20H18.577C18.6667 20 18.7403 19.9712 18.798 19.9135C18.8558 19.8559 18.8848 19.7821 18.8848 19.6923V10.6153H13.25V20ZM20.5 9.11554V6.90379H13.25V9.11554H20.5Z" fill="#5F6571"/>
</svg>
