<svg width="20" height="21" viewBox="0 0 20 21" fill="none" xmlns="http://www.w3.org/2000/svg">
<path d="M8.81729 12.2886L6.88146 10.3525C6.76604 10.2372 6.62097 10.1782 6.44625 10.1754C6.27167 10.1728 6.12396 10.2318 6.00312 10.3525C5.88243 10.4733 5.82208 10.6197 5.82208 10.7917C5.82208 10.9636 5.88243 11.11 6.00312 11.2308L8.29 13.5177C8.44069 13.6683 8.61646 13.7436 8.81729 13.7436C9.01812 13.7436 9.19389 13.6683 9.34458 13.5177L13.9808 8.88147C14.0961 8.76605 14.1551 8.62098 14.1579 8.44626C14.1606 8.27168 14.1015 8.12397 13.9808 8.00314C13.86 7.88244 13.7136 7.82209 13.5417 7.82209C13.3697 7.82209 13.2233 7.88244 13.1025 8.00314L8.81729 12.2886ZM10.0015 18.4167C8.90646 18.4167 7.87722 18.2089 6.91375 17.7933C5.95028 17.3778 5.11222 16.8138 4.39958 16.1015C3.68694 15.3891 3.12271 14.5514 2.70687 13.5883C2.29118 12.6253 2.08333 11.5963 2.08333 10.5015C2.08333 9.40647 2.29111 8.37723 2.70667 7.41376C3.12222 6.45029 3.68618 5.61223 4.39854 4.89959C5.1109 4.18695 5.94861 3.62272 6.91167 3.20688C7.87472 2.79119 8.90368 2.58334 9.99854 2.58334C11.0935 2.58334 12.1228 2.79112 13.0862 3.20668C14.0497 3.62223 14.8878 4.18619 15.6004 4.89855C16.3131 5.61091 16.8773 6.44862 17.2931 7.41168C17.7088 8.37473 17.9167 9.40369 17.9167 10.4986C17.9167 11.5936 17.7089 12.6228 17.2933 13.5863C16.8778 14.5497 16.3138 15.3878 15.6015 16.1004C14.8891 16.8131 14.0514 17.3773 13.0883 17.7931C12.1253 18.2088 11.0963 18.4167 10.0015 18.4167ZM10 17.1667C11.8611 17.1667 13.4375 16.5208 14.7292 15.2292C16.0208 13.9375 16.6667 12.3611 16.6667 10.5C16.6667 8.6389 16.0208 7.06251 14.7292 5.77084C13.4375 4.47918 11.8611 3.83334 10 3.83334C8.13889 3.83334 6.5625 4.47918 5.27083 5.77084C3.97917 7.06251 3.33333 8.6389 3.33333 10.5C3.33333 12.3611 3.97917 13.9375 5.27083 15.2292C6.5625 16.5208 8.13889 17.1667 10 17.1667Z" fill="#0349C7"/>
</svg>
