<svg width="22" height="23" viewBox="0 0 22 23" fill="none" xmlns="http://www.w3.org/2000/svg">
<path d="M11 5.50509C9.88291 5.50509 8.7909 5.83605 7.86211 6.45608C6.93328 7.07612 6.20935 7.95741 5.78186 8.98847C5.35436 10.0196 5.24252 11.1542 5.46045 12.2488C5.67837 13.3433 6.2163 14.3489 7.00621 15.138C7.7961 15.927 8.80247 16.4645 9.89806 16.6822C10.9938 16.8999 12.1293 16.7882 13.1614 16.3611C14.1935 15.9341 15.0756 15.2108 15.6962 14.2829C16.3169 13.3549 16.6481 12.2639 16.6481 11.1479C16.6499 10.4063 16.5051 9.6718 16.2219 8.98641C15.9386 8.30091 15.5227 7.67813 14.9979 7.1538C14.473 6.62944 13.8497 6.21387 13.1636 5.93093C12.4775 5.64801 11.7422 5.50329 11 5.50509ZM11 14.8226C10.2725 14.8226 9.56138 14.607 8.95648 14.2032C8.35172 13.7996 7.88023 13.2257 7.60185 12.5542C7.32346 11.8827 7.25062 11.1439 7.39254 10.431C7.53446 9.71818 7.88477 9.06334 8.39912 8.54944C8.9135 8.03557 9.56896 7.68559 10.2824 7.54381C10.996 7.40202 11.7355 7.47479 12.4076 7.75292C13.0797 8.03104 13.6542 8.50209 14.0582 9.10628C14.4624 9.71061 14.6781 10.4211 14.6781 11.1479C14.6781 12.1224 14.2906 13.0572 13.6009 13.7463C12.9111 14.4354 11.9755 14.8226 11 14.8226ZM18.2048 5.27112C18.2048 5.54334 18.124 5.80943 17.9726 6.03575C17.8212 6.26208 17.6061 6.43849 17.3544 6.54265C17.1027 6.64682 16.8257 6.67408 16.5584 6.62098C16.2912 6.56787 16.0458 6.43679 15.8531 6.24431C15.6605 6.05184 15.5292 5.80661 15.476 5.53964C15.4229 5.27265 15.4501 4.99594 15.5544 4.74445C15.6587 4.49297 15.8353 4.27802 16.0618 4.12679C16.2884 3.97555 16.5547 3.89483 16.8272 3.89483C17.1925 3.89483 17.543 4.03984 17.8013 4.29795C18.0597 4.55605 18.2048 4.90612 18.2048 5.27112ZM21.938 6.64742C21.9781 4.93645 21.3393 3.27908 20.1609 2.03684C18.9241 0.844546 17.2644 0.191179 15.546 0.220136C13.7552 0.137559 8.24483 0.137559 6.45398 0.220136C4.74193 0.1831 3.08411 0.820901 1.83907 1.99555C0.660744 3.23779 0.0219311 4.89516 0.0619913 6.60613C-0.0206638 8.39529 -0.0206638 13.9005 0.0619913 15.6896C0.0219311 17.4006 0.660744 19.058 1.83907 20.3002C3.08411 21.4749 4.74193 22.1126 6.45398 22.0756C8.27238 22.1857 13.7276 22.1857 15.546 22.0756C17.2586 22.1157 18.9175 21.4775 20.1609 20.3002C21.3393 19.058 21.9781 17.4006 21.938 15.6896C22.0207 13.9005 22.0207 8.39529 21.938 6.60613V6.64742ZM19.5961 17.6577C19.409 18.1312 19.1268 18.561 18.7665 18.9209C18.4063 19.2808 17.9761 19.5628 17.5022 19.7497C15.3636 20.1817 13.1774 20.3298 11 20.1901C8.82727 20.3299 6.64548 20.1819 4.51159 19.7497C4.03779 19.5628 3.60745 19.2808 3.24727 18.9209C2.88707 18.561 2.60471 18.1312 2.41766 17.6577C1.83907 16.1989 1.96306 12.7581 1.96306 11.1616C1.96306 9.56514 1.83907 6.11066 2.41766 4.66556C2.59943 4.18753 2.87978 3.75303 3.24052 3.39026C3.60125 3.0275 4.03431 2.74456 4.51159 2.55983C6.64548 2.12765 8.82727 1.97956 11 2.11942C13.1774 1.97979 15.3636 2.12788 17.5022 2.55983C17.9761 2.7467 18.4063 3.0288 18.7665 3.38866C19.1268 3.74851 19.409 4.17845 19.5961 4.65179C20.1747 6.11066 20.0369 9.55138 20.0369 11.1479C20.0369 12.7444 20.1747 16.1989 19.5961 17.644V17.6577Z" fill="white"/>
</svg>
