<svg width="24" height="24" viewBox="0 0 24 24" fill="none" xmlns="http://www.w3.org/2000/svg">
<path d="M18.6575 21.475C18.537 21.475 18.4249 21.4557 18.321 21.4172C18.217 21.3787 18.1183 21.3127 18.0248 21.2192L12.9825 16.1865C12.8889 16.0928 12.8228 15.9941 12.7843 15.8902C12.746 15.7864 12.7268 15.6742 12.7268 15.5537C12.7268 15.4332 12.746 15.3211 12.7843 15.2172C12.8228 15.1134 12.8889 15.0147 12.9825 14.9212L14.8768 13.027C14.9703 12.9333 15.069 12.8672 15.1728 12.8287C15.2766 12.7904 15.3888 12.7712 15.5093 12.7712C15.6298 12.7712 15.742 12.7904 15.8458 12.8287C15.9498 12.8672 16.0485 12.9333 16.142 13.027L21.1843 18.0692C21.278 18.1627 21.344 18.2614 21.3825 18.3652C21.4209 18.4692 21.44 18.5815 21.44 18.702C21.44 18.8225 21.4209 18.9346 21.3825 19.0385C21.344 19.1423 21.278 19.241 21.1843 19.3345L19.29 21.2192C19.1965 21.3127 19.0979 21.3787 18.994 21.4172C18.8902 21.4557 18.778 21.475 18.6575 21.475ZM18.6575 19.7635L19.719 18.702L15.5248 14.5077L14.4633 15.5692L18.6575 19.7635ZM5.31704 21.4902C5.19654 21.4902 5.08179 21.4685 4.97279 21.425C4.86396 21.3813 4.76271 21.3127 4.66904 21.2192L2.79029 19.35C2.69663 19.2563 2.62804 19.1551 2.58454 19.0462C2.54088 18.9372 2.51904 18.8225 2.51904 18.702C2.51904 18.5815 2.54088 18.4676 2.58454 18.3605C2.62804 18.2535 2.69663 18.1531 2.79029 18.0595L8.01329 12.8365H10.119L10.9305 12.025L6.74779 7.84222H5.32279L2.54779 5.06722L5.02679 2.58847L7.80179 5.36347V6.78847L11.9843 10.9712L14.942 8.01347L13.4825 6.55373L14.7478 5.28847H12.2018L11.646 4.74222L14.84 1.54797L15.3863 2.09422V4.64997L16.6515 3.38472L20.4133 7.12697C20.6773 7.38464 20.8763 7.67822 21.0103 8.00772C21.1443 8.33722 21.2113 8.68589 21.2113 9.05373C21.2113 9.37689 21.1555 9.68814 21.044 9.98747C20.9325 10.2868 20.7704 10.5589 20.5575 10.8037L18.471 8.71722L17.0613 10.127L16.0018 9.06722L11.1633 13.9057V16.0152L5.94979 21.2192C5.85629 21.3127 5.75754 21.3813 5.65354 21.425C5.54971 21.4685 5.43754 21.4902 5.31704 21.4902ZM5.31704 19.7537L9.90379 15.1672V14.1057H8.84204L4.25554 18.6922L5.31704 19.7537ZM5.31704 19.7537L4.25554 18.6922L4.79404 19.2155L5.31704 19.7537Z" fill="url(#paint0_linear_216_17)"/>
<defs>
<linearGradient id="paint0_linear_216_17" x1="11.9795" y1="1.54797" x2="11.9795" y2="21.4902" gradientUnits="userSpaceOnUse">
<stop stop-color="#1E56BA"/>
<stop offset="1" stop-color="#023694"/>
</linearGradient>
</defs>
</svg>
