<svg width="56" height="57" viewBox="0 0 56 57" fill="none" xmlns="http://www.w3.org/2000/svg">
<path d="M28.0002 50.6667C24.0576 50.6667 20.8359 50.1013 18.3349 48.9704C15.834 47.8399 14.5835 46.3786 14.5835 44.5866C14.5835 43.8777 14.8236 43.2121 15.3039 42.5899C15.7838 41.9676 16.4665 41.4067 17.352 40.907C17.7619 40.6378 18.2091 40.5459 18.6937 40.631C19.1782 40.7162 19.5552 40.9637 19.8247 41.3736C20.0939 41.7835 20.1761 42.227 20.0715 42.7042C19.9669 43.1814 19.7096 43.5545 19.2997 43.8236C19.0454 43.9135 18.8024 44.0257 18.5706 44.1602C18.3384 44.2948 18.2 44.4293 18.1552 44.5639C18.541 45.2611 19.689 45.8692 21.5992 46.388C23.5091 46.9071 25.6427 47.1667 28.0002 47.1667C30.3576 47.1667 32.4912 46.9071 34.4011 46.388C36.3113 45.8692 37.4593 45.2611 37.8451 44.5639C37.8004 44.4293 37.6619 44.2948 37.4297 44.1602C37.198 44.0257 36.9549 43.9135 36.7006 43.8236C36.2907 43.5545 36.0334 43.1814 35.9288 42.7042C35.8242 42.227 35.9065 41.7835 36.1756 41.3736C36.4451 40.9637 36.8221 40.7162 37.3067 40.631C37.7912 40.5459 38.2384 40.6378 38.6483 40.907C39.5338 41.4067 40.2165 41.9676 40.6964 42.5899C41.1767 43.2121 41.4168 43.8777 41.4168 44.5866C41.4168 46.3786 40.1664 47.8399 37.6654 48.9704C35.1645 50.1013 31.9427 50.6667 28.0002 50.6667ZM28.0585 39.2917C31.9233 36.363 34.8242 33.4621 36.7612 30.589C38.6983 27.7155 39.6668 24.8624 39.6668 22.0297C39.6668 18.0032 38.4066 14.9638 35.8862 12.9116C33.3659 10.8595 30.7372 9.83337 28.0002 9.83337C25.2779 9.83337 22.6529 10.8595 20.1252 12.9116C17.5974 14.9638 16.3335 18.0032 16.3335 22.0297C16.3335 24.68 17.29 27.4261 19.2029 30.2681C21.1159 33.1101 24.0677 36.118 28.0585 39.2917ZM28.0002 42.6482C27.5782 42.6482 27.1565 42.5741 26.7349 42.426C26.313 42.2778 25.9225 42.0631 25.5636 41.782C21.2889 38.336 18.0987 34.9737 15.9928 31.695C13.8866 28.4162 12.8335 25.1945 12.8335 22.0297C12.8335 19.4331 13.292 17.1581 14.209 15.2047C15.126 13.2513 16.3098 11.6157 17.7603 10.2977C19.2113 8.98015 20.838 7.99004 22.6405 7.32737C24.4426 6.66471 26.2292 6.33337 28.0002 6.33337C29.7712 6.33337 31.5577 6.66471 33.3598 7.32737C35.1623 7.99004 36.7891 8.98015 38.24 10.2977C39.6906 11.6157 40.8743 13.2513 41.7913 15.2047C42.7083 17.1581 43.1668 19.4331 43.1668 22.0297C43.1668 25.1945 42.1137 28.4162 40.0075 31.695C37.9017 34.9737 34.7114 38.336 30.4367 41.782C30.0778 42.0631 29.6874 42.2778 29.2654 42.426C28.8439 42.5741 28.4221 42.6482 28.0002 42.6482ZM28.0002 25.92C29.1637 25.92 30.1575 25.5116 30.9816 24.695C31.806 23.8783 32.2182 22.8806 32.2182 21.7019C32.2182 20.5383 31.806 19.5445 30.9816 18.7205C30.1575 17.896 29.1637 17.4838 28.0002 17.4838C26.8514 17.4838 25.8613 17.896 25.0298 18.7205C24.198 19.5445 23.7821 20.5383 23.7821 21.7019C23.7821 22.8806 24.198 23.8783 25.0298 24.695C25.8613 25.5116 26.8514 25.92 28.0002 25.92Z" fill="url(#paint0_linear_258_119)"/>
<defs>
<linearGradient id="paint0_linear_258_119" x1="28.0002" y1="6.33337" x2="28.0002" y2="50.6667" gradientUnits="userSpaceOnUse">
<stop stop-color="#73F0FC"/>
<stop offset="1" stop-color="#52D6E3"/>
</linearGradient>
</defs>
</svg>
