<svg width="24" height="24" viewBox="0 0 24 24" fill="none" xmlns="http://www.w3.org/2000/svg">
<path d="M7.30775 22.5C6.80908 22.5 6.38308 22.3234 6.02975 21.9703C5.67658 21.6169 5.5 21.1909 5.5 20.6923V3.30775C5.5 2.80258 5.675 2.375 6.025 2.025C6.375 1.675 6.80258 1.5 7.30775 1.5H16.7307C17.2294 1.5 17.6553 1.67658 18.0085 2.02975C18.3618 2.38308 18.5385 2.80908 18.5385 3.30775V6.4655C18.8128 6.53717 19.0417 6.68042 19.225 6.89525C19.4083 7.10992 19.5 7.35958 19.5 7.64425V9.52875C19.5 9.81342 19.4083 10.0632 19.225 10.278C19.0417 10.4927 18.8128 10.6359 18.5385 10.7078V20.6923C18.5385 21.1909 18.3618 21.6169 18.0085 21.9703C17.6553 22.3234 17.2294 22.5 16.7307 22.5H7.30775ZM7.30775 21H16.7307C16.8204 21 16.8942 20.9712 16.952 20.9135C17.0097 20.8558 17.0385 20.7821 17.0385 20.6923V3.30775C17.0385 3.21792 17.0097 3.14417 16.952 3.0865C16.8942 3.02883 16.8204 3 16.7307 3H7.30775C7.21792 3 7.14417 3.02883 7.0865 3.0865C7.02883 3.14417 7 3.21792 7 3.30775V20.6923C7 20.7821 7.02883 20.8558 7.0865 20.9135C7.14417 20.9712 7.21792 21 7.30775 21ZM11.5385 12.923V15.8538C11.5385 15.9743 11.5962 16.047 11.7115 16.072C11.8268 16.097 11.9115 16.0576 11.9655 15.9538L13.9865 11.7345C14.057 11.5807 14.0487 11.4327 13.9615 11.2905C13.8743 11.1482 13.7487 11.077 13.5845 11.077H12.4615V8.14625C12.4615 8.02575 12.4038 7.953 12.2885 7.928C12.1732 7.903 12.0885 7.94242 12.0345 8.04625L10.0135 12.2655C9.943 12.4193 9.95133 12.5673 10.0385 12.7095C10.1257 12.8518 10.2513 12.923 10.4155 12.923H11.5385Z" fill="#5F6571"/>
</svg>
