<svg width="20" height="20" viewBox="0 0 20 20" fill="none" xmlns="http://www.w3.org/2000/svg">
<path d="M8.79172 15.1667L13.1042 10H9.77089L10.3751 5.27083L6.52089 10.8333H9.41672L8.79172 15.1667ZM7.98089 12.0833H5.44568C5.16568 12.0833 4.96054 11.9594 4.83026 11.7115C4.69985 11.4637 4.71589 11.2249 4.87839 10.9952L10.3382 3.11875C10.4504 2.96167 10.5936 2.85424 10.7678 2.79646C10.9418 2.73882 11.1228 2.74368 11.3109 2.81104C11.4989 2.87826 11.6365 2.99333 11.7236 3.15625C11.8107 3.31917 11.843 3.49465 11.8205 3.68271L11.194 8.75H14.303C14.5999 8.75 14.8093 8.88306 14.9311 9.14917C15.0529 9.41514 15.0171 9.66299 14.8238 9.89271L8.78693 17.1233C8.66624 17.2665 8.51881 17.3592 8.34464 17.4015C8.17047 17.4435 8.00061 17.4267 7.83505 17.3508C7.6695 17.275 7.54103 17.1591 7.44964 17.0031C7.35825 16.8472 7.3238 16.6751 7.3463 16.4871L7.98089 12.0833Z" fill="#333840"/>
</svg>
