<svg width="24" height="24" viewBox="0 0 24 24" fill="none" xmlns="http://www.w3.org/2000/svg">
<path d="M5.30775 20.5C4.80258 20.5 4.375 20.325 4.025 19.975C3.675 19.625 3.5 19.1974 3.5 18.6923V15.3078C3.5 14.8026 3.675 14.375 4.025 14.025C4.375 13.675 4.80258 13.5 5.30775 13.5H15.25V10.25C15.25 10.0372 15.3218 9.859 15.4655 9.7155C15.609 9.57183 15.7872 9.5 16 9.5C16.2128 9.5 16.391 9.57183 16.5345 9.7155C16.6782 9.859 16.75 10.0372 16.75 10.25V13.5H18.6923C19.1974 13.5 19.625 13.675 19.975 14.025C20.325 14.375 20.5 14.8026 20.5 15.3078V18.6923C20.5 19.1974 20.325 19.625 19.975 19.975C19.625 20.325 19.1974 20.5 18.6923 20.5H5.30775ZM5.30775 19H18.6923C18.7821 19 18.8558 18.9712 18.9135 18.9135C18.9712 18.8558 19 18.7821 19 18.6923V15.3078C19 15.2179 18.9712 15.1442 18.9135 15.0865C18.8558 15.0288 18.7821 15 18.6923 15H5.30775C5.21792 15 5.14417 15.0288 5.0865 15.0865C5.02883 15.1442 5 15.2179 5 15.3078V18.6923C5 18.7821 5.02883 18.8558 5.0865 18.9135C5.14417 18.9712 5.21792 19 5.30775 19ZM7 17.8845C7.25133 17.8845 7.46158 17.7999 7.63075 17.6307C7.79992 17.4616 7.8845 17.2513 7.8845 17C7.8845 16.7487 7.79992 16.5384 7.63075 16.3693C7.46158 16.2001 7.25133 16.1155 7 16.1155C6.74867 16.1155 6.53842 16.2001 6.36925 16.3693C6.20008 16.5384 6.1155 16.7487 6.1155 17C6.1155 17.2513 6.20008 17.4616 6.36925 17.6307C6.53842 17.7999 6.74867 17.8845 7 17.8845ZM10.5 17.8845C10.7513 17.8845 10.9616 17.7999 11.1308 17.6307C11.2999 17.4616 11.3845 17.2513 11.3845 17C11.3845 16.7487 11.2999 16.5384 11.1308 16.3693C10.9616 16.2001 10.7513 16.1155 10.5 16.1155C10.2487 16.1155 10.0384 16.2001 9.86925 16.3693C9.70008 16.5384 9.6155 16.7487 9.6155 17C9.6155 17.2513 9.70008 17.4616 9.86925 17.6307C10.0384 17.7999 10.2487 17.8845 10.5 17.8845ZM14 17.8845C14.2513 17.8845 14.4616 17.7999 14.6307 17.6307C14.7999 17.4616 14.8845 17.2513 14.8845 17C14.8845 16.7487 14.7999 16.5384 14.6307 16.3693C14.4616 16.2001 14.2513 16.1155 14 16.1155C13.7487 16.1155 13.5384 16.2001 13.3693 16.3693C13.2001 16.5384 13.1155 16.7487 13.1155 17C13.1155 17.2513 13.2001 17.4616 13.3693 17.6307C13.5384 17.7999 13.7487 17.8845 14 17.8845ZM16 7.5C15.7397 7.5 15.5025 7.53267 15.2885 7.598C15.0743 7.6635 14.8698 7.76158 14.675 7.89225C14.4788 7.98975 14.2785 8.035 14.074 8.028C13.8695 8.02083 13.6897 7.93975 13.5345 7.78475C13.3795 7.62958 13.3062 7.44717 13.3145 7.2375C13.3228 7.02783 13.4148 6.86917 13.5905 6.7615C13.9532 6.5065 14.3355 6.31583 14.7375 6.1895C15.1395 6.06317 15.5603 6 16 6C16.45 6 16.8734 6.06317 17.2703 6.1895C17.6671 6.31583 18.0468 6.5065 18.4095 6.7615C18.5852 6.86917 18.6772 7.02783 18.6855 7.2375C18.6938 7.44717 18.6205 7.62958 18.4655 7.78475C18.3103 7.93975 18.1279 8.02083 17.9182 8.028C17.7086 8.035 17.5058 7.98975 17.3098 7.89225C17.1251 7.76158 16.9231 7.6635 16.7038 7.598C16.4846 7.53267 16.25 7.5 16 7.5ZM16 4C15.241 4 14.5368 4.1215 13.8875 4.3645C13.2382 4.60733 12.6571 4.93458 12.1442 5.34625C11.9686 5.47442 11.7785 5.535 11.574 5.528C11.3695 5.52083 11.1948 5.44483 11.05 5.3C10.8948 5.14483 10.8205 4.96758 10.827 4.76825C10.8333 4.56892 10.9192 4.40192 11.0845 4.26725C11.7615 3.71475 12.5151 3.28208 13.3453 2.96925C14.1754 2.65642 15.0603 2.5 16 2.5C16.9397 2.5 17.8246 2.65642 18.6548 2.96925C19.4849 3.28208 20.2385 3.71475 20.9155 4.26725C21.0808 4.40192 21.1667 4.56892 21.173 4.76825C21.1795 4.96758 21.1052 5.14483 20.95 5.3C20.8052 5.44483 20.6305 5.52083 20.426 5.528C20.2215 5.535 20.0314 5.47442 19.8557 5.34625C19.3429 4.93458 18.7618 4.60733 18.1125 4.3645C17.4632 4.1215 16.759 4 16 4Z" fill="url(#paint0_linear_216_23)"/>
<defs>
<linearGradient id="paint0_linear_216_23" x1="12.3367" y1="2.5" x2="12.3367" y2="20.5" gradientUnits="userSpaceOnUse">
<stop stop-color="#1E56BA"/>
<stop offset="1" stop-color="#023694"/>
</linearGradient>
</defs>
</svg>
