<svg width="56" height="57" viewBox="0 0 56 57" fill="none" xmlns="http://www.w3.org/2000/svg">
<path d="M28.3146 48.3333C27.818 48.3333 27.4021 48.1657 27.0668 47.8305C26.732 47.4956 26.5646 47.0799 26.5646 46.5833C26.5646 46.0867 26.732 45.671 27.0668 45.3361C27.4021 45.0009 27.818 44.8333 28.3146 44.8333H43.6154C43.8099 44.8333 43.9782 44.7734 44.1206 44.6536C44.2625 44.5342 44.3335 44.3773 44.3335 44.1829V27.863C44.3335 23.4024 42.7375 19.6473 39.5455 16.5976C36.3539 13.548 32.5054 12.0231 28.0002 12.0231C23.4949 12.0231 19.6464 13.548 16.4548 16.5976C13.2628 19.6473 11.6668 23.4024 11.6668 27.863V39.8522C11.6668 40.3488 11.4992 40.7647 11.164 41.1C10.8292 41.4348 10.4134 41.6022 9.91683 41.6022C8.798 41.6022 7.83783 41.2127 7.03633 40.4338C6.23444 39.6545 5.8335 38.7054 5.8335 37.5865V33.0546C5.8335 32.2978 6.04894 31.6045 6.47983 30.9745C6.91072 30.3448 7.47305 29.8387 8.16683 29.456L8.27475 26.4764C8.46608 23.9365 9.12563 21.5838 10.2534 19.418C11.3812 17.2523 12.8275 15.367 14.5922 13.762C16.3574 12.1571 18.3946 10.9066 20.7038 10.0106C23.0134 9.11462 25.4456 8.66663 28.0002 8.66663C30.5548 8.66663 32.9809 9.11462 35.2784 10.0106C37.576 10.9066 39.6132 12.1511 41.39 13.744C43.1668 15.3368 44.6131 17.2162 45.7288 19.3819C46.8445 21.548 47.5101 23.9008 47.7256 26.4402L47.8335 29.3615C48.5125 29.6816 49.0711 30.1393 49.5094 30.7347C49.9477 31.3301 50.1668 31.9941 50.1668 32.7268V37.9365C50.1668 38.6692 49.9477 39.3332 49.5094 39.9286C49.0711 40.524 48.5125 40.9817 47.8335 41.3018V44.1829C47.8335 45.3313 47.4215 46.3101 46.5974 47.1194C45.773 47.9287 44.779 48.3333 43.6154 48.3333H28.3146ZM21.4487 32.6282C20.8775 32.6282 20.3906 32.4345 19.9881 32.0472C19.586 31.6599 19.3849 31.1804 19.3849 30.6087C19.3849 30.0374 19.586 29.5544 19.9881 29.1597C20.3906 28.7646 20.8775 28.567 21.4487 28.567C22.0204 28.567 22.5073 28.7646 22.9094 29.1597C23.3119 29.5544 23.5132 30.0374 23.5132 30.6087C23.5132 31.1804 23.3119 31.6599 22.9094 32.0472C22.5073 32.4345 22.0204 32.6282 21.4487 32.6282ZM34.5516 32.6282C33.9799 32.6282 33.493 32.4345 33.0909 32.0472C32.6884 31.6599 32.4872 31.1804 32.4872 30.6087C32.4872 30.0374 32.6884 29.5544 33.0909 29.1597C33.493 28.7646 33.9799 28.567 34.5516 28.567C35.1229 28.567 35.6097 28.7646 36.0122 29.1597C36.4144 29.5544 36.6154 30.0374 36.6154 30.6087C36.6154 31.1804 36.4144 31.6599 36.0122 32.0472C35.6097 32.4345 35.1229 32.6282 34.5516 32.6282ZM14.8664 28.9666C14.6241 25.1586 15.8087 21.9001 18.4201 19.1911C21.0315 16.4825 24.2637 15.1282 28.1168 15.1282C31.3536 15.1282 34.2096 16.1296 36.6848 18.1324C39.1605 20.1352 40.663 22.7279 41.1922 25.9105C37.8777 25.8717 34.8152 25.0013 32.0047 23.2995C29.1942 21.5974 27.0367 19.264 25.5321 16.2995C24.9398 19.201 23.6985 21.7662 21.8081 23.9949C19.9173 26.2236 17.6034 27.8808 14.8664 28.9666Z" fill="url(#paint0_linear_258_103)"/>
<defs>
<linearGradient id="paint0_linear_258_103" x1="28.0002" y1="8.66663" x2="28.0002" y2="48.3333" gradientUnits="userSpaceOnUse">
<stop stop-color="#73F0FC"/>
<stop offset="1" stop-color="#52D6E3"/>
</linearGradient>
</defs>
</svg>
