<svg width="24" height="24" viewBox="0 0 24 24" fill="none" xmlns="http://www.w3.org/2000/svg">
<path d="M14.8155 12L7.28276 19.5328C7.08409 19.7314 6.98726 19.9654 6.99226 20.2345C6.99743 20.5039 7.09934 20.7379 7.29801 20.9365C7.49684 21.1352 7.73084 21.2345 8.00001 21.2345C8.26918 21.2345 8.50318 21.1352 8.70201 20.9365L16.373 13.2808C16.5538 13.0999 16.6878 12.8973 16.775 12.673C16.8622 12.4487 16.9058 12.2243 16.9058 12C16.9058 11.7757 16.8622 11.5513 16.775 11.327C16.6878 11.1027 16.5538 10.9001 16.373 10.7193L8.70201 3.04801C8.50318 2.84935 8.26659 2.7526 7.99226 2.75776C7.71793 2.76293 7.48143 2.86485 7.28276 3.06351C7.08409 3.26218 6.98476 3.49618 6.98476 3.76551C6.98476 4.03468 7.08409 4.2686 7.28276 4.46727L14.8155 12Z" fill="white"/>
</svg>
