<svg width="56" height="57" viewBox="0 0 56 57" fill="none" xmlns="http://www.w3.org/2000/svg">
<path d="M4.1958 40.3639C4.1958 39.1614 4.50613 38.0883 5.1268 37.1444C5.74747 36.2006 6.57638 35.4664 7.61355 34.9418C9.831 33.8572 12.0607 33.0209 14.3026 32.4329C16.545 31.8452 19.0092 31.5514 21.6952 31.5514C24.3817 31.5514 26.8459 31.8452 29.0878 32.4329C31.3301 33.0209 33.56 33.8572 35.7775 34.9418C36.8146 35.4664 37.6436 36.2006 38.2642 37.1444C38.8849 38.0883 39.1952 39.1614 39.1952 40.3639V42.0065C39.1952 42.9457 38.8505 43.7713 38.161 44.4834C37.4715 45.1954 36.6346 45.5514 35.6503 45.5514H7.74013C6.75625 45.5514 5.91955 45.2067 5.23005 44.5172C4.54055 43.8273 4.1958 42.9904 4.1958 42.0065V40.3639ZM48.2596 45.5514H42.9601C43.2533 45.0159 43.4769 44.446 43.6309 43.8417C43.7849 43.2374 43.8619 42.6256 43.8619 42.0065V40.0769C43.8619 38.5454 43.487 37.0857 42.7372 35.6978C41.9871 34.3102 40.9231 33.1196 39.5452 32.126C41.1097 32.3594 42.5951 32.7204 44.0013 33.2093C45.4071 33.6985 46.7488 34.2766 48.0263 34.9435C49.2319 35.5867 50.1629 36.3449 50.8193 37.2179C51.4757 38.0906 51.804 39.0436 51.804 40.0769V42.0065C51.804 42.9904 51.4592 43.8273 50.7697 44.5172C50.0802 45.2067 49.2435 45.5514 48.2596 45.5514ZM21.6952 27.7819C19.4494 27.7819 17.5269 26.9824 15.9278 25.3833C14.3287 23.7838 13.5291 21.8611 13.5291 19.6153C13.5291 17.3694 14.3287 15.447 15.9278 13.8479C17.5269 12.2484 19.4494 11.4486 21.6952 11.4486C23.9411 11.4486 25.8637 12.2484 27.4632 13.8479C29.0623 15.447 29.8619 17.3694 29.8619 19.6153C29.8619 21.8611 29.0623 23.7838 27.4632 25.3833C25.8637 26.9824 23.9411 27.7819 21.6952 27.7819ZM41.8424 19.6153C41.8424 21.8611 41.0428 23.7838 39.4437 25.3833C37.8446 26.9824 35.9221 27.7819 33.6763 27.7819C33.413 27.7819 33.078 27.752 32.6712 27.6921C32.2641 27.6322 31.929 27.5665 31.6661 27.4949C32.5862 26.3886 33.2934 25.1612 33.7877 23.8129C34.2816 22.4647 34.5286 21.0647 34.5286 19.6129C34.5286 18.1608 34.2766 16.7661 33.7726 15.4287C33.2686 14.0917 32.5664 12.8609 31.6661 11.7362C32.001 11.6164 32.336 11.5386 32.6712 11.5029C33.0061 11.4667 33.3411 11.4486 33.6763 11.4486C35.9221 11.4486 37.8446 12.2484 39.4437 13.8479C41.0428 15.447 41.8424 17.3694 41.8424 19.6153ZM7.69522 42.0514H35.6952V40.3639C35.6952 39.8766 35.5733 39.443 35.3295 39.063C35.086 38.6831 34.6995 38.351 34.1698 38.0667C32.2495 37.0766 30.2722 36.3264 28.2379 35.8162C26.2036 35.3064 24.0227 35.0514 21.6952 35.0514C19.3681 35.0514 17.1874 35.3064 15.1531 35.8162C13.1189 36.3264 11.1416 37.0766 9.22122 38.0667C8.69155 38.351 8.3048 38.6831 8.06097 39.063C7.81713 39.443 7.69522 39.8766 7.69522 40.3639V42.0514ZM21.6952 24.2819C22.9786 24.2819 24.0772 23.825 24.9911 22.9111C25.9049 21.9972 26.3619 20.8986 26.3619 19.6153C26.3619 18.3319 25.9049 17.2333 24.9911 16.3194C24.0772 15.4056 22.9786 14.9486 21.6952 14.9486C20.4119 14.9486 19.3133 15.4056 18.3994 16.3194C17.4855 17.2333 17.0286 18.3319 17.0286 19.6153C17.0286 20.8986 17.4855 21.9972 18.3994 22.9111C19.3133 23.825 20.4119 24.2819 21.6952 24.2819Z" fill="url(#paint0_linear_258_95)"/>
<defs>
<linearGradient id="paint0_linear_258_95" x1="27.9999" y1="11.4486" x2="27.9999" y2="45.5514" gradientUnits="userSpaceOnUse">
<stop stop-color="#73F0FC"/>
<stop offset="1" stop-color="#52D6E3"/>
</linearGradient>
</defs>
</svg>
