<svg width="56" height="57" viewBox="0 0 56 57" fill="none" xmlns="http://www.w3.org/2000/svg">
<path d="M22.1667 32.224V24.776C22.1667 24.1783 22.3689 23.6774 22.7733 23.2733C23.1774 22.8689 23.6783 22.6667 24.276 22.6667H31.724C32.3217 22.6667 32.8226 22.8689 33.2267 23.2733C33.6311 23.6774 33.8333 24.1783 33.8333 24.776V32.224C33.8333 32.8217 33.6311 33.3226 33.2267 33.7267C32.8226 34.1311 32.3217 34.3333 31.724 34.3333H24.276C23.6783 34.3333 23.1774 34.1311 22.7733 33.7267C22.3689 33.3226 22.1667 32.8217 22.1667 32.224ZM25.6667 30.8333H30.3333V26.1667H25.6667V30.8333ZM21.5833 46.0449V43.6667H17.0514C15.8727 43.6667 14.875 43.2583 14.0583 42.4417C13.2417 41.625 12.8333 40.6273 12.8333 39.4486V34.9167H10.4551C9.95924 34.9167 9.54372 34.7489 9.2085 34.4132C8.87288 34.0776 8.70508 33.6619 8.70508 33.1661C8.70508 32.6699 8.87288 32.2543 9.2085 31.9195C9.54372 31.5843 9.95924 31.4167 10.4551 31.4167H12.8333V25.5833H10.4551C9.95924 25.5833 9.54372 25.4155 9.2085 25.0799C8.87288 24.7443 8.70508 24.3286 8.70508 23.8327C8.70508 23.3365 8.87288 22.921 9.2085 22.5862C9.54372 22.2509 9.95924 22.0833 10.4551 22.0833H12.8333V17.5514C12.8333 16.3727 13.2417 15.375 14.0583 14.5583C14.875 13.7417 15.8727 13.3333 17.0514 13.3333H21.5833V10.9551C21.5833 10.4592 21.7511 10.0437 22.0867 9.7085C22.4224 9.37288 22.8381 9.20508 23.3339 9.20508C23.8301 9.20508 24.2457 9.37288 24.5805 9.7085C24.9157 10.0437 25.0833 10.4592 25.0833 10.9551V13.3333H30.9167V10.9551C30.9167 10.4592 31.0845 10.0437 31.4201 9.7085C31.7557 9.37288 32.1714 9.20508 32.6672 9.20508C33.1635 9.20508 33.579 9.37288 33.9138 9.7085C34.2491 10.0437 34.4167 10.4592 34.4167 10.9551V13.3333H38.9486C40.1273 13.3333 41.125 13.7417 41.9417 14.5583C42.7583 15.375 43.1667 16.3727 43.1667 17.5514V22.0833H45.5449C46.0407 22.0833 46.4563 22.2511 46.7915 22.5867C47.1271 22.9224 47.2949 23.3381 47.2949 23.8339C47.2949 24.3301 47.1271 24.7457 46.7915 25.0805C46.4563 25.4157 46.0407 25.5833 45.5449 25.5833H43.1667V31.4167H45.5449C46.0407 31.4167 46.4563 31.5845 46.7915 31.9201C47.1271 32.2557 47.2949 32.6714 47.2949 33.1672C47.2949 33.6635 47.1271 34.079 46.7915 34.4138C46.4563 34.7491 46.0407 34.9167 45.5449 34.9167H43.1667V39.4486C43.1667 40.6273 42.7583 41.625 41.9417 42.4417C41.125 43.2583 40.1273 43.6667 38.9486 43.6667H34.4167V46.0449C34.4167 46.5407 34.2489 46.9563 33.9132 47.2915C33.5776 47.6271 33.1619 47.7949 32.6661 47.7949C32.1699 47.7949 31.7543 47.6271 31.4195 47.2915C31.0843 46.9563 30.9167 46.5407 30.9167 46.0449V43.6667H25.0833V46.0449C25.0833 46.5407 24.9155 46.9563 24.5799 47.2915C24.2443 47.6271 23.8286 47.7949 23.3327 47.7949C22.8365 47.7949 22.421 47.6271 22.0862 47.2915C21.7509 46.9563 21.5833 46.5407 21.5833 46.0449ZM38.9486 40.1667C39.1282 40.1667 39.2927 40.0918 39.4421 39.9421C39.5918 39.7927 39.6667 39.6282 39.6667 39.4486V17.5514C39.6667 17.3717 39.5918 17.2072 39.4421 17.0579C39.2927 16.9082 39.1282 16.8333 38.9486 16.8333H17.0514C16.8717 16.8333 16.7072 16.9082 16.5579 17.0579C16.4082 17.2072 16.3333 17.3717 16.3333 17.5514V39.4486C16.3333 39.6282 16.4082 39.7927 16.5579 39.9421C16.7072 40.0918 16.8717 40.1667 17.0514 40.1667H38.9486Z" fill="url(#paint0_linear_258_111)"/>
<defs>
<linearGradient id="paint0_linear_258_111" x1="28" y1="9.20508" x2="28" y2="47.7949" gradientUnits="userSpaceOnUse">
<stop stop-color="#73F0FC"/>
<stop offset="1" stop-color="#52D6E3"/>
</linearGradient>
</defs>
</svg>
