<svg width="22" height="23" viewBox="0 0 22 23" fill="none" xmlns="http://www.w3.org/2000/svg">
<path d="M18.7117 3.34826C17.7031 2.33272 16.5025 1.52773 15.1799 0.980081C13.8571 0.432434 12.4386 0.15309 11.0069 0.158274C9.09292 0.160144 7.21292 0.664547 5.55532 1.62097C3.89773 2.57738 2.52069 3.95226 1.56207 5.60787C0.603453 7.2635 0.0969431 9.14182 0.0932283 11.0546C0.0895272 12.9675 0.588772 14.8476 1.54096 16.507L0 22.1582L5.77861 20.6457C7.37427 21.5329 9.16722 22.0057 10.9931 22.0207C13.8958 22.0208 16.6809 20.8751 18.7422 18.8329C20.8037 16.7909 21.9745 14.0177 22 11.117C21.9904 9.66954 21.6948 8.23822 21.1306 6.90511C20.5664 5.57199 19.7443 4.36328 18.7117 3.34826ZM11.0069 20.137C9.3802 20.1381 7.78325 19.7011 6.38399 18.872L6.05378 18.6657L2.62789 19.5732L3.53596 16.232L3.31582 15.8882C2.14531 13.9999 1.70846 11.7481 2.08803 9.5594C2.46761 7.37075 3.63724 5.39722 5.37535 4.0127C7.11347 2.62816 9.2993 1.9288 11.5188 2.04709C13.7384 2.16537 15.8375 3.09309 17.4184 4.65451C19.1465 6.34326 20.1357 8.64682 20.1701 11.062C20.1484 13.4763 19.1733 15.7844 17.4572 17.484C15.7412 19.1835 13.4229 20.1371 11.0069 20.137ZM15.9737 13.3445C15.6986 13.207 14.364 12.547 14.1163 12.4645C13.8687 12.382 13.676 12.327 13.4972 12.602C13.2281 12.9706 12.9386 13.324 12.6304 13.6607C12.4791 13.8532 12.3139 13.867 12.0388 13.6607C10.4699 13.0412 9.16282 11.8999 8.33771 10.4295C8.04878 9.94825 8.61288 9.97575 9.13571 8.9445C9.17437 8.87012 9.19446 8.78762 9.19446 8.70388C9.19446 8.62014 9.17437 8.53764 9.13571 8.46326C9.13571 8.32574 8.51657 6.97825 8.29644 6.442C8.0763 5.90575 7.85616 5.98825 7.6773 5.9745H7.14071C7.00168 5.97663 6.86472 6.00841 6.73896 6.06769C6.61321 6.12696 6.50157 6.21239 6.41151 6.31825C6.10279 6.61825 5.862 6.98089 5.70536 7.38173C5.54872 7.78257 5.47987 8.21231 5.50344 8.64201C5.58971 9.67064 5.97733 10.651 6.61789 11.4607C7.79039 13.215 9.39726 14.636 11.2821 15.5857C12.2706 16.1624 13.4194 16.4036 14.5566 16.2732C14.9352 16.1982 15.2939 16.0443 15.6091 15.8215C15.9245 15.5989 16.1893 15.3124 16.3865 14.9807C16.5692 14.5759 16.6267 14.1259 16.5516 13.6882C16.4278 13.5507 16.2489 13.482 15.9737 13.3445Z" fill="white"/>
</svg>
