<svg width="18" height="18" viewBox="0 0 18 18" fill="none" xmlns="http://www.w3.org/2000/svg">
<path d="M8.99997 15.5336C8.57597 15.5336 8.21753 15.3872 7.92466 15.0945C7.63191 14.8017 7.48553 14.4433 7.48553 14.0192C7.48553 13.5952 7.63191 13.2368 7.92466 12.944C8.21753 12.6513 8.57597 12.5049 8.99997 12.5049C9.42397 12.5049 9.78241 12.6513 10.0753 12.944C10.368 13.2368 10.5144 13.5952 10.5144 14.0192C10.5144 14.4433 10.368 14.8017 10.0753 15.0945C9.78241 15.3872 9.42397 15.5336 8.99997 15.5336ZM8.99997 8.0769C9.9086 8.0769 10.768 8.2269 11.5781 8.5269C12.3882 8.8269 13.1202 9.24184 13.7739 9.77172C13.9614 9.91584 14.0583 10.1026 14.0645 10.332C14.0708 10.5613 13.9903 10.7597 13.823 10.9269C13.6634 11.0865 13.467 11.167 13.2339 11.1684C13.0007 11.1699 12.7903 11.1024 12.6028 10.9659C12.1087 10.588 11.5548 10.2909 10.9413 10.0745C10.3278 9.85815 9.68072 9.74997 8.99997 9.74997C8.31922 9.74997 7.67209 9.85815 7.05859 10.0745C6.44509 10.2909 5.89128 10.588 5.39716 10.9659C5.20966 11.1024 4.99928 11.168 4.76603 11.1628C4.53291 11.1574 4.33653 11.0749 4.17691 10.9153C4.01728 10.748 3.93866 10.5497 3.94103 10.3203C3.94353 10.0911 4.03853 9.90434 4.22603 9.76009C4.87978 9.23034 5.61172 8.81734 6.42184 8.52109C7.23197 8.22497 8.09134 8.0769 8.99997 8.0769ZM8.99997 3.5769C10.5432 3.5769 11.9887 3.83678 13.3363 4.35653C14.6839 4.87628 15.8885 5.6049 16.95 6.5424C17.1375 6.7019 17.2363 6.89947 17.2464 7.13509C17.2564 7.37072 17.1778 7.57215 17.0105 7.7394C16.8462 7.90378 16.6462 7.98309 16.4105 7.97734C16.175 7.97159 15.9611 7.89034 15.7687 7.73359C14.8543 6.94809 13.8209 6.33778 12.6684 5.90265C11.516 5.46753 10.2932 5.24997 8.99997 5.24997C7.70672 5.24997 6.48391 5.46753 5.33153 5.90265C4.17903 6.33778 3.14559 6.94809 2.23122 7.73359C2.03884 7.89034 1.82491 7.97159 1.58941 7.97734C1.35378 7.98309 1.15378 7.90378 0.989407 7.7394C0.822157 7.57215 0.743532 7.37072 0.753532 7.13509C0.763657 6.89947 0.862469 6.7019 1.04997 6.5424C2.11147 5.6049 3.31603 4.87628 4.66366 4.35653C6.01128 3.83678 7.45672 3.5769 8.99997 3.5769Z" fill="#333840"/>
</svg>
