<svg xmlns="http://www.w3.org/2000/svg" width="189" height="45" fill="none"><path fill="#fff" d="M130.474 30.278c.265-1.115.601-2.498.629-2.59.032-.104-.049-.112-1.079-.112-.725 0-1.114-.024-1.114-.067 0-.037.063-.314.139-.615l.138-.547h5.936999999999999l-.039.145c-.021.08-.088.357-.15.615l-.111.469h-1.126c-1.016 0-1.128.01-1.157.113-.026.091-.406 1.66-.624 2.57l-.046.195-.724.018-.723.018zm6.31.03.509-2.053.463-1.876 2.917-.017c1.999-.011 2.917.005 2.917.051 0 .038-.062.314-.138.615l-.139.548h-2.202c-2.148 0-2.204.003-2.237.129-.034.127-.002.13 1.746.13h1.781l-.143.565-.144.566-1.754.017c-1.304.013-1.768.038-1.806.097-.151.237-.11.242 2.133.242 1.202 0 2.186.015 2.186.035 0 .019-.063.28-.139.582l-.138.547h-5.859zm8.546-.226c.052-.223.278-1.147.502-2.054l.408-1.649.735-.018c.68-.017.733-.01.701.097-.043.142-.693 2.806-.693 2.84 0 .013.939.024 2.088.024 1.148 0 2.088.015 2.088.035 0 .019-.063.28-.139.582l-.138.547h-5.648zm8.646-1.423c.247-1.005.479-1.936.515-2.07l.065-.242h2.901c2.638 0 2.901.01 2.901.105 0 .058-.063.335-.141.615l-.141.509h-2.208c-2.164 0-2.208.002-2.208.129 0 .126.044.13 1.752.13h1.752l-.132.581-.131.582h-1.777c-1.852 0-1.855 0-1.855.264 0 .035.902.06 2.186.06 1.202 0 2.185.013 2.185.028 0 .04-.195.888-.236 1.023-.031.105-.229.113-2.956.113h-2.922zm8.678 1.719a.74.74 0 0 1-.403-.681c.001-.345.567-2.518.703-2.699.191-.256.601-.508.947-.583.186-.04 1.251-.068 2.626-.068 2.58 0 2.383-.04 2.251.453l-.132.5-.072.276h-2.113c-1.162 0-2.157.017-2.211.037-.114.044-.475 1.445-.413 1.606.035.091.283.103 2.162.103 1.655 0 2.123.018 2.123.08 0 .045-.028.183-.061.308-.034.124-.094.35-.133.501l-.072.275-2.493-.002c-2.169 0-2.521-.015-2.709-.106m8.482 0a.74.74 0 0 1-.404-.665c0-.109.131-.725.292-1.37.33-1.325.427-1.504.968-1.787l.338-.177 2.023-.021c1.334-.015 2.136.003 2.355.05.364.08.641.31.712.594.046.185-.485 2.45-.646 2.758-.131.25-.352.438-.692.591-.277.125-.419.132-2.512.132-1.917 0-2.248-.014-2.434-.105m4.278-1.17c.171-.148.497-1.428.395-1.55-.108-.128-3.009-.118-3.117.011-.077.092-.389 1.26-.393 1.47-.001.059.035.122.08.14s.717.035 1.493.038c1.257.004 1.427-.008 1.542-.108m3.889 1.167c.019-.064.23-.907.467-1.875.419-1.707.439-1.767.658-1.957.211-.184.258-.196.757-.196.434 0 .569.025.732.136.126.085.478.589.95 1.358.413.672.765 1.221.783 1.221s.635-.539 1.37-1.198c.736-.66 1.476-1.27 1.645-1.358.251-.13.403-.16.822-.16.564 0 .729.09.731.394 0 .086-.197.964-.438 1.951l-.438 1.795h-.704c-.388 0-.704-.026-.704-.057s.115-.533.256-1.114.25-1.065.242-1.073-.513.436-1.121.987c-.609.55-1.215 1.059-1.348 1.13-.17.089-.37.127-.668.127-.558 0-.643-.08-1.4-1.321-.345-.566-.603-.927-.623-.873-.018.05-.145.558-.281 1.127l-.247 1.035-.738.018c-.682.017-.735.01-.703-.097M47.357 23.333c-.745-.199-1.231-.622-1.409-1.228-.128-.438-.16-.255.566-3.195.389-1.577.647-2.493.779-2.76.355-.722 1.187-1.32 2.19-1.575.48-.122.739-.128 5.817-.128 4.975 0 5.311.007 5.271.11-.023.06-.177.643-.341 1.294l-.299 1.183H55.39c-2.806 0-4.632.026-4.776.065-.412.114-.471.24-.868 1.863-.407 1.666-.406 1.706.009 1.82.151.042 1.327.067 3.1.067h2.856l.053-.145c.03-.08.18-.647.335-1.26l.282-1.116h1.625c1.544 0 1.623.006 1.587.118-.02.065-.312 1.207-.648 2.538l-.611 2.42-5.31.012c-4.5.01-5.363-.002-5.666-.083m12.33.039c0-.036.502-2.059 1.117-4.495l1.117-4.43h6.451c5.118 0 6.451.017 6.45.081 0 .045-.14.62-.312 1.277l-.313 1.197-4.855.032-4.854.033-.046.161a1.7 1.7 0 0 0-.051.307l-.007.146h7.78l-.04.145c-.022.08-.164.648-.316 1.261l-.275 1.115-3.915.017-3.915.016-.075.26c-.041.141-.062.28-.047.306.015.027 2.195.049 4.844.049h4.817l-.327 1.293-.327 1.294h-6.45c-4.28 0-6.452-.022-6.452-.065m14.248-.049c.02-.062.482-1.888 1.028-4.057l.993-3.944.297-.314c.456-.484.659-.56 1.48-.56.652 0 .716.011 1.03.191.183.106 1.637 1.226 3.231 2.49s2.916 2.298 2.938 2.298.32-1.113.662-2.474l.622-2.473 1.61-.018c.887-.01 1.612-.002 1.612.017 0 .087-1.969 7.846-2.029 7.995-.079.197-.441.556-.802.795-.233.154-.31.168-.933.168-.977 0-.49.315-4.968-3.22-1.233-.974-2.254-1.757-2.27-1.74-.03.028-1.26 4.817-1.263 4.911 0 .027-.737.049-1.637.049-1.527 0-1.633-.008-1.6-.114m14.655.016c0-.076 1.862-7.54 2.158-8.65l.065-.242h1.596c1.026 0 1.596.024 1.596.065 0 .036-.503 2.059-1.117 4.495l-1.118 4.43h-1.59c-1.376 0-1.59-.014-1.59-.098m4.436.075c0-.037.288-.342 1.232-1.304.489-.498 1.328-1.357 1.866-1.907 4.877-5.002 5.18-5.301 5.547-5.47.761-.35 2.171-.374 2.831-.047.441.219.271-.086 2.051 3.674l1.44 3.04.95 2.004-1.903.018c-1.046.009-1.923-.006-1.949-.033-.025-.027-.612-1.272-1.303-2.765s-1.291-2.754-1.333-2.8c-.077-.084-1.061.89-4.506 4.464l-1.106 1.146-1.909.002c-1.05 0-1.908-.01-1.908-.022m18.182-4.23c.589-2.338 1.1-4.36 1.136-4.494l.065-.243h3.244l-.772 3.039c-.424 1.671-.79 3.097-.813 3.169-.042.13-.023.13 4.595.13 2.55 0 4.636.012 4.636.027 0 .029-.558 2.24-.626 2.48l-.041.145h-12.496zm18.512 4.14c.019-.063.478-1.889 1.02-4.059.982-3.936.985-3.945 1.225-4.195.132-.138.355-.334.495-.437l.254-.186h2.448l.413.275c.408.272.434.307 2.08 2.894.917 1.44 1.701 2.62 1.742 2.62s.627-.484 1.302-1.076c4.721-4.135 4.769-4.175 5.335-4.449l.545-.264h1.183c1.359 0 1.396.012 1.635.518l.153.324-.967 3.864a862 862 0 0 1-1.026 4.074l-.058.21h-1.596c-1.042 0-1.595-.023-1.595-.066 0-.037.265-1.117.59-2.402.324-1.284.581-2.36.571-2.39-.019-.055-.415.284-3.445 2.944-1.295 1.137-1.696 1.451-2.111 1.658l-.514.256h-1.5950000000000002l-.39-.25c-.427-.274-.347-.16-2.288-3.259-.485-.773-.9-1.406-.922-1.406s-.318 1.106-.656 2.458l-.615 2.457h-1.624c-1.517 0-1.622-.008-1.589-.114m21.145.022c-.894-.22-1.533-.898-1.533-1.625 0-.124.4-1.811.889-3.75l.889-3.524h1.627c1.519 0 1.625.008 1.593.114-.212.708-1.475 5.837-1.461 5.933.01.072.119.18.247.244.209.104.465.112 3.099.097 2.761-.017 2.881-.023 3.132-.152l.261-.134.775-3.05.775-3.052h3.232l-.9 3.55c-.658 2.595-.948 3.63-1.075 3.847-.391.661-1.232 1.23-2.172 1.468-.464.117-.747.124-4.773.12-3.167-.005-4.364-.027-4.605-.086m13.647-4.161c.589-2.34 1.101-4.362 1.136-4.495l.065-.243h3.241l-.764 3.024c-.42 1.663-.786 3.089-.812 3.169l-.048.145h4.637c2.55 0 4.637.016 4.637.035 0 .034-.453 1.846-.593 2.374l-.065.243H163.44zm14.078 4.14c.068-.174 1.537-6.105 1.537-6.203 0-.072-.436-.088-2.447-.088-1.345 0-2.446-.022-2.445-.048s.143-.602.314-1.278l.312-1.228 6.57-.017c3.613-.009 6.569-.003 6.569.013 0 .025-.102.424-.594 2.316l-.063.242h-4.948l-.057.21c-.032.116-.391 1.557-.799 3.202l-.742 2.99h-1.625c-1.512 0-1.622-.007-1.582-.11M18.553 44.476l-2.02-1.178c-1.398-.815-3.48-2.03-5.336-3.116l-3.142-1.835-4.888-2.852L0 33.646V10.927l.723-.42c1.053-.612 3.514-2.012 7.73-4.398a647 647 0 0 0 4.065-2.31c.192-.116 1.382-.794 2.643-1.509a363 363 0 0 0 3.14-1.794L19.148 0l.55.276c.304.152 1.158.57 1.898.929l2.669 1.293c.726.353 1.456.704 1.62.78.766.355 3.467 1.678 3.467 1.699 0 .039-1.95 1.136-5.555 3.126l-.392.217-2.114-1.038a101 101 0 0 0-2.146-1.037c-.018 0-.35.181-.736.403l-1.326.76a576.797 576.797 0 0 1-5.067 2.905c-5.402 3.068-6.515 3.71-6.602 3.814-.036.043-.048 2.617-.04 8.233l.013 8.172L8.803 32.5l3.965 2.287c1.932 1.121 4.186 2.416 4.245 2.438.058.023.069-.998.069-6.719v-6.745l-.886-.522a281 281 0 0 0-2.944-1.69c-2.385-1.352-2.48-1.409-2.423-1.459.024-.02.986-.578 2.138-1.24l2.224-1.277c.127-.073.193-.039 3.33 1.75l3.199 1.825.004 2.225c.003 2.145.142 19.366.16 20.072l.01.346-1.196.604c-.659.332-1.209.604-1.222.605-.014 0-.43-.235-.923-.524m7.15-7.764c-.005-2.66-.021-7.77-.038-11.356l-.03-6.52L22.433 17c-3.107-1.78-3.198-1.836-3.1-1.919.055-.046.946-.563 1.98-1.148 1.033-.585 1.96-1.111 2.06-1.17l.181-.106.293.163c.16.09.494.28.74.422.503.291 2.82 1.62 4.04 2.318.44.25.933.53 1.098.62.164.09.338.197.386.238.083.07.087.67.087 11.301v11.227l-2.032 1.173c-1.118.646-2.128 1.231-2.244 1.3l-.212.127zm8.468-5.638c-.018-2.604-.047-7.487-.065-10.853-.024-4.29-.05-6.14-.088-6.192-.03-.04-1.445-.871-3.144-1.847s-3.098-1.795-3.107-1.821c-.008-.026.574-.383 1.295-.792L31.293 8.3c.643-.366.95-.515 1.017-.494.053.017.548.292 1.1.611.789.457 3.892 2.233 5.155 2.95l.212.121-.013 10.856-.012 10.855-1.447.825a355 355 0 0 0-2.922 1.677l-.179.106z"/></svg>